<svg xmlns="http://www.w3.org/2000/svg" viewBox="0 0 144.01 144"><defs><style>.cls-1{fill:#70d44b;}</style></defs><g id="Layer_2" data-name="Layer 2"><g id="Layer_1-2" data-name="Layer 1"><path class="cls-1" d="M72,11a15.93,15.93,0,0,1,14.31,8.84l45,90A16,16,0,0,1,117,133H27A16,16,0,0,1,12.7,109.84l45-90A15.92,15.92,0,0,1,72,11M72,0A27,27,0,0,0,47.86,14.92l-45,90A27,27,0,0,0,27,144h90a27,27,0,0,0,24.15-39.08l-45-90A27,27,0,0,0,72,0Z"/></g></g><script xmlns="" type="application/javascript"/></svg>