<svg width="12" height="12" viewBox="0 0 12 12" fill="none" xmlns="http://www.w3.org/2000/svg">
<rect width="12" height="12" rx="4" fill="#E84142"/>
<path fill-rule="evenodd" clip-rule="evenodd" d="M6.60998 2.24906C6.40211 1.91698 6.0714 1.91698 5.86352 2.24906L2.08872 8.397C1.88085 8.73346 2.05092 9 2.46667 9H4.36116C4.74384 8.97815 5.08872 8.79026 5.29659 8.49313L7.57848 4.83583C7.74384 4.52122 7.74384 4.14981 7.57848 3.83521L6.89817 2.72971L6.60998 2.24906ZM9.1186 6.29519C8.91073 5.96311 8.57529 5.96311 8.36742 6.29519L7.04931 8.39694C6.84616 8.72902 7.01624 8.99993 7.42726 8.99993H10.0351C10.4509 8.99993 10.621 8.72902 10.4131 8.39694L9.1186 6.29519Z" fill="white"/>
<script xmlns="" type="application/javascript"/></svg>