<svg width="16" height="16" viewBox="0 0 16 16" fill="none" xmlns="http://www.w3.org/2000/svg">
<path d="M13.5211 3.64304L13.1601 3.9892L13.1675 3.99659L13.5211 3.64304ZM11.0276 0.320661C10.8364 0.12136 10.5199 0.114744 10.3206 0.305883C10.1213 0.497022 10.1147 0.813535 10.3058 1.01284L11.0276 0.320661ZM4.00002 1.83335H8.00002V0.83335H4.00002V1.83335ZM8.83335 2.66668V13.6667H9.83335V2.66668H8.83335ZM3.16669 13.6667V2.66668H2.16669V13.6667H3.16669ZM8.00002 1.83335C8.46026 1.83335 8.83335 2.20645 8.83335 2.66668H9.83335C9.83335 1.65416 9.01254 0.83335 8.00002 0.83335V1.83335ZM4.00002 0.83335C2.9875 0.83335 2.16669 1.65416 2.16669 2.66668H3.16669C3.16669 2.20645 3.53978 1.83335 4.00002 1.83335V0.83335ZM10 9.10002H10.2667V8.10002H10V9.10002ZM11.1 9.93336V11.4667H12.1V9.93336H11.1ZM14.5 11.4675V4.5514H13.5V11.4675H14.5ZM13.882 3.29695L11.0276 0.320661L10.3058 1.01284L13.1602 3.98912L13.882 3.29695ZM14.5 4.5514C14.5 3.98367 14.1383 3.55309 13.8746 3.28948L13.1675 3.99659C13.404 4.23308 13.5 4.41189 13.5 4.5514H14.5ZM12.8 13.1667C13.7385 13.1667 14.5 12.4068 14.5 11.4675H13.5C13.5 11.8537 13.187 12.1667 12.8 12.1667V13.1667ZM11.1 11.4667C11.1 12.4056 11.8611 13.1667 12.8 13.1667V12.1667C12.4134 12.1667 12.1 11.8533 12.1 11.4667H11.1ZM10.2667 9.10002C10.7269 9.10002 11.1 9.47312 11.1 9.93336H12.1C12.1 8.92083 11.2792 8.10002 10.2667 8.10002V9.10002ZM13.5 4.66668C13.5 5.12692 13.1269 5.50002 12.6667 5.50002V6.50002C13.6792 6.50002 14.5 5.67921 14.5 4.66668H13.5ZM12.6667 5.50002C12.2064 5.50002 11.8334 5.12692 11.8334 4.66668H10.8334C10.8334 5.67921 11.6542 6.50002 12.6667 6.50002V5.50002ZM11.8334 4.66668C11.8334 4.20645 12.2064 3.83335 12.6667 3.83335V2.83335C11.6542 2.83335 10.8334 3.65416 10.8334 4.66668H11.8334ZM12.6667 3.83335C13.1269 3.83335 13.5 4.20645 13.5 4.66668H14.5C14.5 3.65416 13.6792 2.83335 12.6667 2.83335V3.83335ZM3.66669 15.1667H8.33335V14.1667H3.66669V15.1667ZM2.16669 13.6667C2.16669 14.4952 2.83826 15.1667 3.66669 15.1667V14.1667C3.39054 14.1667 3.16669 13.9429 3.16669 13.6667H2.16669ZM8.83335 13.6667C8.83335 13.9429 8.6095 14.1667 8.33335 14.1667V15.1667C9.16178 15.1667 9.83335 14.4952 9.83335 13.6667H8.83335Z" fill="#5D6785"/>
<line x1="4.5" y1="8.83337" x2="7.5" y2="8.83337" stroke="#5D6785" stroke-linecap="round"/>
<line x1="4.5" y1="10.8334" x2="7.5" y2="10.8334" stroke="#5D6785" stroke-linecap="round"/>
<line x1="4.5" y1="12.8334" x2="7.5" y2="12.8334" stroke="#5D6785" stroke-linecap="round"/>
</svg>
