<?xml version="1.0" encoding="UTF-8"?><svg id="StarkNet_logo" xmlns="http://www.w3.org/2000/svg" viewBox="0 0 500 500"><defs><style>.cls-1{fill:#fafafa;}.cls-2{fill:#ff4f0a;}.cls-3{fill:#29296e;}</style></defs><path id="Marvel" class="cls-3" d="M495.5,250c0,135.53-109.97,245.5-245.5,245.5S4.5,385.53,4.5,250,114.47,4.5,250,4.5s245.5,109.97,245.5,245.5"/><path id="Star" class="cls-1" d="M364.28,184.39l-6.16-19.41c-1.23-4-4.31-7.08-8.32-8.32l-19.41-5.85c-2.77-.92-2.77-4.62,0-5.54l19.41-6.16c4-1.23,7.08-4.31,8.32-8.32l5.85-19.41c.92-2.77,4.62-2.77,5.54,0l6.16,19.41c1.23,4,4.31,7.08,8.32,8.32l19.41,5.85c2.77,.92,2.77,4.62,0,5.54l-19.41,6.16c-4,1.23-7.08,4.31-8.32,8.32l-5.85,19.41c-.92,2.46-4.62,2.46-5.54,0"/><path id="Orange_wave" class="cls-2" d="M26.68,246c5.85-11.4,17.25-20.02,29.26-25.57,12.01-5.24,25.57-8.62,38.5-9.86,26.49-2.46,52.06,2.16,75.47,9.55,12.01,3.7,22.79,8.62,33.88,13.55,5.54,2.46,10.47,5.54,15.71,8.32l14.48,8.32c16.02,9.86,31.42,18.48,45.9,25.26,14.48,6.78,27.72,11.09,40.04,13.55s24.95,2.16,40.35-1.23c15.4-3.39,32.65-11.09,50.82-20.64,18.17-9.55,36.66-21.25,57.91-32.96-2.16,24.03-8.93,46.51-19.71,68.38-10.78,21.56-26.18,42.51-48.05,59.45-21.56,17.25-51.44,28.95-81.94,30.8-30.19,2.16-59.14-4.62-83.78-14.79s-45.9-23.72-64.69-38.5c-5.24-4-8.01-6.47-12.01-9.55l-10.78-9.55c-7.39-5.54-14.17-12.32-21.56-18.17-14.17-12.01-28.34-24.03-44.05-34.19-7.7-5.24-16.02-10.17-24.95-14.48-4.62-2.16-9.24-4-14.48-5.54-4.31-.92-9.86-1.85-16.33-2.16"/><path id="White_wave" class="cls-1" d="M26.68,246c3.08-24.64,14.48-48.05,32.96-67.77,18.48-19.71,47.13-34.81,79.16-36.66,15.71-.92,31.73,.62,46.51,4.93,14.79,4,28.34,9.86,40.66,16.94,6.16,3.39,12.01,7.39,17.56,11.09l15.4,11.71,24.03,18.79c15.4,12.32,30.49,23.72,44.05,33.27,13.86,9.55,25.57,16.33,36.96,20.33,11.09,4.31,25.26,5.54,43.74,.92,9.24-2.16,18.79-6.16,29.26-10.17,10.17-4.31,20.95-9.55,32.34-14.48-1.54,12.32-4,24.95-8.62,36.35-4.62,11.71-10.78,23.1-19.1,33.88-4.31,5.24-8.93,10.47-14.48,15.4-5.54,4.62-11.4,9.24-18.17,13.25-13.25,7.7-28.95,13.25-45.28,15.4-16.02,2.16-32.34,.92-47.13-2.16-14.79-3.08-28.34-8.01-40.66-13.55-24.64-11.4-45.59-25.87-63.76-41.28-9.24-7.7-17.87-15.71-25.87-23.72l-9.55-9.55c-2.77-2.77-5.85-5.54-8.62-8.32-11.71-10.47-22.49-18.17-34.5-23.1-12.01-5.54-27.41-7.7-45.9-4.31-18.79,3.39-39.12,11.71-60.99,22.79"/><circle id="Circle" class="cls-1" cx="111.69" cy="373.83" r="13.25"/></svg>