<svg width="16" height="16" viewBox="0 0 16 16" fill="none" xmlns="http://www.w3.org/2000/svg">
<path d="M15.216 4.30015L12.7625 6.7537C13.4081 6.80314 13.9167 7.34272 13.9167 8.00001V8.43867C13.5743 8.16419 13.1397 8.00001 12.6667 8.00001H11.5162L5.43287 14.0833H12.6667C14.1855 14.0833 15.4167 12.8521 15.4167 11.3333V5.33332C15.4167 4.9679 15.3454 4.61913 15.216 4.30015Z"/>
<path d="M0.663258 11.994C0.611066 11.7824 0.58338 11.5611 0.58338 11.3333V5.33332C0.58338 3.81454 1.8146 2.58332 3.33338 2.58332H10.0739L8.57394 4.08332H3.33338C2.64302 4.08332 2.08338 4.64296 2.08338 5.33332V5.55032C2.4588 5.35831 2.88407 5.25001 3.33446 5.25001H7.40725L5.90725 6.75001H3.33446C2.64357 6.75001 2.08338 7.31018 2.08338 8.00001V8.43867C2.42578 8.16419 2.86041 8.00001 3.33338 8.00001H4.65725L0.663258 11.994Z"/>
<path fill-rule="evenodd" clip-rule="evenodd" d="M0.559422 15.4406C0.266529 15.1477 0.343167 14.5962 0.730598 14.2088L14.2088 0.730598C14.5962 0.343167 15.1477 0.266529 15.4406 0.559422C15.7335 0.852315 15.6569 1.40383 15.2694 1.79126L1.79126 15.2694C1.40383 15.6569 0.852315 15.7335 0.559422 15.4406Z"/>
</svg>
